<?xml version="1.0" encoding="utf-8"?>
<!-- Generator: Adobe Illustrator 28.0.0, SVG Export Plug-In . SVG Version: 6.00 Build 0)  -->
<svg version="1.1" id="Calque_1" xmlns="http://www.w3.org/2000/svg" xmlns:xlink="http://www.w3.org/1999/xlink" x="0px" y="0px"
	 viewBox="0 0 595.28 841.89" style="enable-background:new 0 0 595.28 841.89;" xml:space="preserve">
<style type="text/css">
	.st0{fill:#FFED00;}
</style>
<g>
	<path class="st0" d="M502.71,362.27c10.38-10.25,13.5-22.88,9-36.79c-4.56-14.09-14.57-22.33-29.23-24.73
		c-6.97-1.14-13.97-2.12-20.95-3.15c-27.64-4.06-55.26-8.22-82.94-12.04c-4.49-0.62-7.13-2.21-9.15-6.35
		c-14.99-30.74-29.99-61.48-45.52-91.95c-3.03-5.96-7.47-11.94-12.77-15.89c-18.23-13.57-43.14-6.94-53.46,13.77
		c-15.69,31.46-31.06,63.09-46.8,94.52c-1.19,2.37-4.04,5.1-6.45,5.47c-33.97,5.17-67.99,10.04-102.02,14.79
		c-11.3,1.57-21.08,5.61-28.06,15.01c-10.86,14.64-9.39,34.43,3.86,47.47c25.12,24.72,50.38,49.3,75.7,73.82
		c2.87,2.78,3.88,5.64,3.22,9.44c-4.37,25.13-8.71,50.28-13.02,75.42c-2,11.7-3.93,23.4-5.89,35.05c0.72,3.84,1.04,7.56,2.13,11.04
		c6.83,21.86,31.09,31.7,51.97,20.87c31.21-16.19,62.32-32.6,93.39-49.07c3.39-1.79,6.16-1.9,9.44,0c4.72,2.73,9.63,5.13,14.47,7.66
		c26.88,14.1,53.65,28.42,80.71,42.18c12.68,6.46,25.43,4.9,36.87-3.41c11.68-8.49,16.7-20.55,14.45-34.65
		c-5.44-34.07-11.4-68.06-17.49-102.02c-1.07-5.98-0.09-10.04,4.49-14.42C453.56,410.52,478.2,386.46,502.71,362.27z M393.01,451.56
		c6.12,34.27,11.99,68.6,17.76,102.93c0.31,1.83-0.72,4.92-2.1,5.71c-1.63,0.93-4.69,0.68-6.5-0.26
		c-29.21-15.16-58.36-30.46-87.44-45.88c-8.9-4.72-17.81-9.42-28.27-7.53c-4.97,0.89-10.04,2.4-14.51,4.71
		c-30.53,15.78-60.92,31.85-91.35,47.82c-1.28,0.67-2.55,1.41-3.9,1.9c-3.51,1.26-6.88-1.14-6.98-4.89
		c1.41-8.23,2.82-16.45,4.22-24.68c4.88-28.63,10.08-57.22,14.48-85.92c1.85-12.07-3.29-22.25-11.99-30.68
		c-14.68-14.22-29.3-28.5-43.93-42.77c-10.15-9.88-20.36-19.69-30.34-29.74c-1.75-1.76-3.92-5.04-3.32-6.67
		c0.74-2,4.03-3.93,6.47-4.31c20.94-3.3,41.92-6.25,62.9-9.29c13.98-2.03,28-3.85,41.94-6.12c13.13-2.13,22.48-9.47,28.35-21.5
		c11.68-23.95,23.57-47.81,35.38-71.7c3.55-7.2,6.88-14.52,10.75-21.54c1.24-2.24,3.79-4.91,5.96-5.13c1.69-0.16,4.41,2.84,5.5,5.02
		c14.71,29.43,29.71,58.74,43.58,88.56c7.96,17.11,20.37,25.46,38.88,27.7c32.04,3.87,63.92,8.99,95.86,13.6
		c1.43,0.21,2.88,0.41,4.25,0.84c3.44,1.09,4.74,4.68,2.78,7.68c-0.69,1.06-1.67,1.95-2.59,2.84
		c-24.54,23.94-48.97,47.98-73.68,71.74C394.26,424.49,390.36,436.72,393.01,451.56z"/>
	<path class="st0" d="M481.44,339.42c-0.69,1.06-1.67,1.95-2.59,2.84c-24.54,23.94-48.97,47.98-73.68,71.74
		c-10.91,10.49-14.81,22.72-12.16,37.56c6.12,34.27,11.99,68.6,17.76,102.93c0.31,1.83-0.72,4.92-2.1,5.71
		c-1.63,0.93-4.69,0.68-6.5-0.26c-29.21-15.16-58.36-30.46-87.44-45.88c-8.9-4.72-17.81-9.42-28.27-7.53
		c-4.97,0.89-10.04,2.4-14.51,4.71c-30.53,15.78-60.92,31.85-91.35,47.82c-1.28,0.67-2.55,1.41-3.9,1.9
		c-3.51,1.26-6.88-1.14-6.98-4.89c1.41-8.23,2.82-16.45,4.22-24.68c4.88-28.63,10.08-57.22,14.48-85.92
		c1.85-12.07-3.29-22.25-11.99-30.68c-14.68-14.22-29.3-28.5-43.93-42.77c-10.15-9.88-20.36-19.69-30.34-29.74
		c-1.75-1.76-3.92-5.04-3.32-6.67c0.74-2,4.03-3.93,6.47-4.31c20.94-3.3,41.92-6.25,62.9-9.29c13.98-2.03,28-3.85,41.94-6.12
		c13.13-2.13,22.48-9.47,28.35-21.5c11.68-23.95,23.57-47.81,35.38-71.7c3.55-7.2,6.88-14.52,10.75-21.54
		c1.24-2.24,3.79-4.91,5.96-5.13c1.69-0.16,4.41,2.84,5.5,5.02c14.71,29.43,29.71,58.74,43.58,88.56
		c7.96,17.11,20.37,25.46,38.88,27.7c32.04,3.87,63.92,8.99,95.86,13.6c1.43,0.21,2.88,0.41,4.25,0.84
		C482.1,332.83,483.4,336.42,481.44,339.42z"/>
</g>
</svg>
