<?xml version="1.0" encoding="utf-8"?>
<!-- Generator: Adobe Illustrator 28.0.0, SVG Export Plug-In . SVG Version: 6.00 Build 0)  -->
<svg version="1.1" id="Calque_1" xmlns="http://www.w3.org/2000/svg" xmlns:xlink="http://www.w3.org/1999/xlink" x="0px" y="0px"
	 viewBox="0 0 595.28 841.89" style="enable-background:new 0 0 595.28 841.89;" xml:space="preserve">
<style type="text/css">
	.st0{fill:#FFFFFF;}
</style>
<g>
	<path class="st0" d="M145.45,587.63c1.95-11.64,3.88-23.35,5.89-35.05c4.31-25.15,8.65-50.29,13.02-75.43
		c0.66-3.8-0.35-6.66-3.22-9.44c-25.32-24.52-50.58-49.1-75.7-73.82c-13.25-13.04-14.73-32.83-3.86-47.48
		c6.97-9.4,16.76-13.43,28.06-15.01c34.03-4.75,68.05-9.62,102.02-14.79c2.41-0.37,5.27-3.1,6.45-5.46
		c15.74-31.44,31.11-63.06,46.8-94.52c10.33-20.71,35.23-27.34,53.47-13.77c5.3,3.94,9.73,9.93,12.77,15.89
		c15.52,30.47,30.53,61.21,45.52,91.96c2.02,4.13,4.66,5.73,9.15,6.35c27.67,3.82,55.29,7.98,82.93,12.04
		c6.99,1.03,13.98,2.01,20.95,3.15c14.66,2.4,24.67,10.64,29.23,24.73c4.5,13.91,1.38,26.54-9,36.79
		c-24.5,24.2-49.15,48.26-74.05,72.04c-4.58,4.37-5.56,8.43-4.48,14.42c6.08,33.96,12.05,67.95,17.49,102.02
		c2.25,14.1-2.77,26.16-14.45,34.65c-11.44,8.32-24.2,9.87-36.88,3.42c-27.05-13.76-53.82-28.09-80.71-42.18
		c-4.84-2.54-9.75-4.93-14.47-7.67c-3.28-1.9-6.05-1.79-9.43,0.01c-31.08,16.46-62.18,32.87-93.4,49.07
		c-20.87,10.83-45.14,0.99-51.97-20.87C146.49,595.19,146.17,591.47,145.45,587.63z M176.93,587.57c0.11,3.75,3.47,6.15,6.99,4.89
		c1.35-0.48,2.61-1.23,3.89-1.9c30.44-15.97,60.82-32.04,91.36-47.82c4.47-2.31,9.54-3.81,14.51-4.71
		c10.46-1.89,19.37,2.82,28.27,7.54c29.08,15.42,58.23,30.71,87.44,45.88c1.81,0.94,4.87,1.18,6.5,0.26c1.38-0.78,2.4-3.88,2.1-5.71
		c-5.77-34.34-11.64-68.66-17.76-102.94c-2.65-14.83,1.25-27.07,12.16-37.56c24.71-23.76,49.14-47.8,73.68-71.74
		c0.92-0.9,1.9-1.78,2.59-2.84c1.96-3,0.66-6.59-2.78-7.68c-1.37-0.43-2.82-0.63-4.26-0.84c-31.94-4.61-63.82-9.73-95.85-13.6
		c-18.52-2.24-30.92-10.59-38.88-27.7c-13.88-29.83-28.87-59.13-43.58-88.57c-1.09-2.18-3.81-5.18-5.5-5.01
		c-2.17,0.22-4.72,2.88-5.96,5.13c-3.88,7.02-7.2,14.34-10.76,21.53c-11.8,23.9-23.69,47.75-35.38,71.7
		c-5.87,12.03-15.21,19.37-28.35,21.5c-13.94,2.27-27.96,4.09-41.94,6.11c-20.97,3.04-41.96,5.99-62.89,9.29
		c-2.44,0.38-5.73,2.31-6.47,4.32c-0.6,1.63,1.58,4.91,3.32,6.67c9.98,10.05,20.19,19.86,30.34,29.74
		c14.64,14.26,29.25,28.55,43.93,42.77c8.7,8.43,13.84,18.61,11.99,30.67c-4.4,28.71-9.6,57.29-14.48,85.93
		C179.75,571.12,178.34,579.35,176.93,587.57z"/>
</g>
</svg>
