<?xml version="1.0" encoding="utf-8"?>
<!-- Generator: Adobe Illustrator 28.0.0, SVG Export Plug-In . SVG Version: 6.00 Build 0)  -->
<svg version="1.1" id="Calque_1" xmlns="http://www.w3.org/2000/svg" xmlns:xlink="http://www.w3.org/1999/xlink" x="0px" y="0px"
	 viewBox="0 0 595.28 841.89" style="enable-background:new 0 0 595.28 841.89;" xml:space="preserve">
<style type="text/css">
	.st0{fill:#F6F6F6;stroke:#F6F6F6;stroke-miterlimit:10;}
</style>
<path class="st0" d="M359.43,633.95c-1.5-0.33-3.01-0.95-4.51-0.96c-11.64-0.08-23.29,0.2-34.93-0.1
	c-16.34-0.43-32.69-1.01-49.01-2.03c-15.25-0.96-30.48-2.44-45.69-3.95c-11.57-1.15-23.09-2.74-34.65-4
	c-1.6-0.18-3.57-0.13-4.86,0.65c-8.27,4.99-17.18,6.6-26.75,6.48c-20.62-0.26-41.25,0.01-61.87-0.11
	c-12.81-0.08-22.77-5.36-31.45-15.14c-8.39-9.45-10.77-19.84-10.74-31.79c0.15-55.72,0.09-111.44,0.05-167.16
	c-0.01-10.7,4.39-19.51,10.79-27.75c9.21-11.86,21.98-15.32,35.99-15.53c18.79-0.28,37.6-0.42,56.38,0.09
	c8.01,0.22,15.97,2.23,24.64,3.52c3.08-4.66,6.8-10.67,10.92-16.4c3.46-4.81,7.26-9.39,11.16-13.85
	c6.41-7.33,13.91-13.86,19.33-21.84c8.85-13.02,16.88-26.66,24.38-40.52c8.83-16.33,17.08-33.01,24.91-49.84
	c4.68-10.06,7.75-20.87,12.2-31.05c2.43-5.57,3.14-10.93,3.07-16.95c-0.1-8.87,0.05-18,2.05-26.56
	c2.56-11.02,8.41-21.07,20.63-23.32c7.56-1.39,15.87-0.89,23.44,0.68c6.99,1.45,13.89,4.74,20.05,8.48
	c15.59,9.47,24.79,23.65,28.4,41.54c4.61,22.8,0.65,44.79-5.78,66.63c-4.74,16.1-9.41,32.22-13.64,48.46
	c-1.63,6.25-1.96,12.85-3.06,20.55c7.99-1.38,14.96-2.74,21.97-3.76c11.81-1.72,23.61-3.61,35.48-4.71
	c9.86-0.91,19.82-0.92,29.74-1.08c15.88-0.27,31.04,2.88,46.09,8.19c13.4,4.73,23.77,12.5,30.27,24.76
	c6.01,11.34,8.21,23.81,6.16,36.67c-0.69,4.3-2.4,8.43-3.25,12.72c-0.27,1.36,0.36,3.24,1.22,4.41
	c9.33,12.81,12.89,27.22,11.36,42.77c-1.02,10.4-5.31,19.78-11.55,28.17c-1.91,2.57-2.59,4.77-1.49,8.1
	c5.1,15.38,3.71,30.83-1.6,45.73c-2.12,5.94-6.58,11.1-10.26,16.42c-1.95,2.82-4.8,5.04-6.65,7.9c-1.04,1.61-1.32,4.01-1.21,6.02
	c0.81,15.16-2.98,28.91-11.97,41.22c-5.9,8.08-12.64,15-21.77,19.69c-16.56,8.5-33.68,14.85-52.34,16.6
	c-3.63,0.34-7.2,1.28-10.79,1.94C393.36,633.95,376.4,633.95,359.43,633.95z M205.22,594.87c1.19,0.33,2.69,0.97,4.25,1.13
	c7.51,0.76,15.04,1.36,22.55,2.07c17.16,1.63,34.29,3.63,51.48,4.84c12.7,0.89,25.47,0.78,38.22,1.11
	c13.57,0.34,27.15,1.08,40.72,0.9c19.18-0.26,38.39-0.67,57.51-2.03c15.53-1.11,30.06-6.34,42.7-15.69
	c13.48-9.97,18.04-21.11,14.69-36.74c-1.73-8.05-0.84-14.99,6.35-20.07c12.97-9.18,23.53-28.82,13.71-47.61
	c-5.46-10.44-2.35-18.18,4.97-26.48c11.39-12.89,12.21-27.19,1.63-41.68c-3.71-5.08-10.5-8.83-8.75-16.67
	c0.73-3.28,2.09-6.48,3.53-9.54c3.46-7.4,5.24-15.41,2.56-22.93c-3.67-10.31-12.26-16.83-22.52-19.74
	c-15.67-4.45-31.75-5.17-48.16-4.52c-22.46,0.9-44.22,5.24-65.91,10.24c-15.7,3.62-27.43-5.58-30.55-19.06
	c-2.73-11.83-1.75-23.33,1.03-34.58c4.94-19.99,11.08-39.69,16.49-59.57c3.95-14.53,6.62-29.27,3.71-44.36
	c-1.78-9.25-5.68-17.29-13.54-23.22c-6.56-4.94-14.13-6.23-22.34-7.87c-0.38,2.3-0.98,4.33-1,6.37c-0.11,9.31-0.01,18.62-0.1,27.93
	c-0.02,1.77-0.25,3.65-0.91,5.27c-5.24,12.81-10.31,25.71-16.01,38.32c-8.95,19.79-18.08,39.51-27.68,58.98
	c-4.33,8.79-9.71,17.11-15.11,25.31c-9.45,14.36-18.68,28.79-32,40.28c-11.36,9.8-18.5,22.86-21.94,37.5
	c-0.9,3.82,0.89,8.19,0.9,12.31c0.07,57.7,0.06,115.4,0.04,173.1C205.71,590.09,205.44,592.02,205.22,594.87z M176.81,501.33
	c0-27.77-0.24-55.54,0.12-83.3c0.14-10.54-7.24-15.3-14.84-15.46c-21.44-0.45-42.91-0.62-64.34,0.09
	c-7.6,0.25-13.93,4.54-13.89,14.26c0.24,56.37,0.11,112.74,0.12,169.1c0,9.06,6,15,15.14,15c20.62,0.01,41.24,0.01,61.86,0
	c9.91-0.01,15.82-5.94,15.82-15.89C176.81,557.19,176.8,529.26,176.81,501.33z"/>
</svg>
