<?xml version="1.0" encoding="utf-8"?>
<!-- Generator: Adobe Illustrator 28.0.0, SVG Export Plug-In . SVG Version: 6.00 Build 0)  -->
<svg version="1.1" id="Calque_1" xmlns="http://www.w3.org/2000/svg" xmlns:xlink="http://www.w3.org/1999/xlink" x="0px" y="0px"
	 viewBox="0 0 595.28 841.89" style="enable-background:new 0 0 595.28 841.89;" xml:space="preserve">
<style type="text/css">
	.st0{fill:#B2B2B2;}
</style>
<path class="st0" d="M532.63,451.23c1.53-15.55-2.03-29.96-11.37-42.77c-0.85-1.18-1.48-3.06-1.22-4.42
	c0.85-4.28,2.57-8.41,3.25-12.71c2.05-12.87-0.15-25.33-6.16-36.68c-6.5-12.26-16.87-20.02-30.27-24.75
	c-15.05-5.32-30.21-8.47-46.09-8.19c-9.92,0.16-19.87,0.17-29.73,1.08c-11.88,1.1-23.68,2.99-35.49,4.71
	c-7.01,1.02-13.98,2.38-21.97,3.76c1.1-7.71,1.43-14.3,3.06-20.55c4.23-16.24,8.9-32.37,13.64-48.46
	c6.42-21.85,10.38-43.84,5.78-66.63c-3.62-17.89-12.82-32.08-28.4-41.54c-6.17-3.75-13.07-7.04-20.06-8.49
	c-7.57-1.57-15.88-2.07-23.44-0.68c-12.22,2.26-18.07,12.3-20.63,23.32c-1.99,8.57-2.15,17.7-2.05,26.57
	c0.07,6.01-0.63,11.37-3.07,16.94c-4.45,10.19-7.52,20.99-12.2,31.05c-7.83,16.84-16.07,33.51-24.91,49.84
	c-7.49,13.86-15.52,27.5-24.37,40.52c-5.43,7.97-12.93,14.51-19.34,21.84c-3.9,4.46-7.7,9.05-11.16,13.85
	c-4.13,5.73-7.85,11.75-10.93,16.4c-8.67-1.3-16.63-3.3-24.64-3.52c-18.78-0.51-37.58-0.38-56.37-0.09
	c-14.01,0.21-26.79,3.67-36,15.53c-6.39,8.24-10.8,17.05-10.79,27.75c0.04,55.72,0.1,111.44-0.05,167.16
	c-0.03,11.95,2.35,22.34,10.74,31.79c8.68,9.77,18.64,15.06,31.45,15.13c20.62,0.13,41.25-0.14,61.87,0.12
	c9.57,0.12,18.48-1.5,26.75-6.48c1.3-0.78,3.27-0.83,4.86-0.66c11.56,1.27,23.08,2.86,34.65,4.01c15.21,1.5,30.44,2.99,45.69,3.95
	c16.31,1.02,32.66,1.6,49.01,2.03c11.63,0.31,23.28,0.02,34.92,0.11c1.51,0.01,3.01,0.62,4.51,0.96H403
	c3.6-0.67,7.17-1.61,10.79-1.95c18.67-1.75,35.79-8.1,52.35-16.6c9.12-4.68,15.86-11.6,21.76-19.68
	c8.99-12.32,12.78-26.06,11.97-41.22c-0.11-2.01,0.17-4.41,1.21-6.02c1.86-2.87,4.71-5.09,6.65-7.91
	c3.68-5.32,8.14-10.47,10.26-16.42c5.31-14.9,6.7-30.35,1.6-45.73c-1.1-3.33-0.42-5.53,1.49-8.1
	C527.31,471.01,531.6,461.63,532.63,451.23z M169.48,510.4c0,27.93,0,55.87-0.01,83.8c0,9.95-5.91,15.89-15.82,15.89
	c-20.62,0.02-41.24,0.01-61.86,0.01c-9.14-0.01-15.14-5.94-15.14-15c0-56.37,0.12-112.74-0.12-169.11
	c-0.04-9.72,6.29-14.01,13.89-14.26c21.43-0.71,42.9-0.54,64.34-0.09c7.61,0.16,14.98,4.91,14.84,15.46
	C169.24,454.86,169.48,482.63,169.48,510.4z M495.04,465.37c-7.32,8.29-10.43,16.03-4.97,26.48c9.82,18.79-0.74,38.43-13.72,47.61
	c-7.18,5.09-8.07,12.02-6.34,20.07c3.35,15.63-1.21,26.77-14.69,36.74c-12.64,9.35-27.17,14.58-42.7,15.69
	c-19.12,1.36-38.33,1.77-57.51,2.03c-13.57,0.18-27.15-0.56-40.72-0.9c-12.74-0.32-25.51-0.21-38.22-1.11
	c-17.18-1.21-34.32-3.2-51.48-4.84c-7.51-0.71-15.04-1.31-22.55-2.07c-1.55-0.16-3.06-0.8-4.25-1.13c0.22-2.84,0.49-4.78,0.5-6.71
	c0.02-57.7,0.03-115.4-0.04-173.1c-0.01-4.12-1.8-8.49-0.9-12.31c3.45-14.65,10.59-27.7,21.94-37.5
	c13.33-11.5,22.55-25.93,32.01-40.29c5.4-8.2,10.77-16.52,15.11-25.31c9.6-19.47,18.73-39.19,27.68-58.98
	c5.7-12.61,10.77-25.5,16.01-38.32c0.67-1.61,0.9-3.5,0.92-5.27c0.09-9.31-0.01-18.62,0.1-27.93c0.02-2.04,0.62-4.08,1-6.38
	c8.22,1.65,15.79,2.94,22.34,7.88c7.87,5.93,11.76,13.97,13.55,23.22c2.91,15.1,0.24,29.84-3.71,44.37
	c-5.41,19.88-11.55,39.58-16.49,59.57c-2.78,11.26-3.76,22.76-1.03,34.58c3.11,13.48,14.84,22.68,30.54,19.06
	c21.7-4.99,43.46-9.33,65.92-10.24c16.41-0.65,32.48,0.07,48.15,4.52c10.26,2.91,18.85,9.43,22.52,19.74
	c2.68,7.52,0.9,15.53-2.56,22.93c-1.43,3.07-2.8,6.26-3.53,9.54c-1.74,7.85,5.04,11.59,8.75,16.68
	C507.25,438.17,506.44,452.48,495.04,465.37z"/>
<path class="st0" d="M495.04,465.37c-7.32,8.29-10.43,16.03-4.97,26.48c9.82,18.79-0.74,38.43-13.72,47.61
	c-7.18,5.09-8.07,12.02-6.34,20.07c3.35,15.63-1.21,26.77-14.69,36.74c-12.64,9.35-27.17,14.58-42.7,15.69
	c-19.12,1.36-38.33,1.77-57.51,2.03c-13.57,0.18-27.15-0.56-40.72-0.9c-12.74-0.32-25.51-0.21-38.22-1.11
	c-17.18-1.21-34.32-3.2-51.48-4.84c-7.51-0.71-15.04-1.31-22.55-2.07c-1.55-0.16-3.06-0.8-4.25-1.13c0.22-2.84,0.49-4.78,0.5-6.71
	c0.02-57.7,0.03-115.4-0.04-173.1c-0.01-4.12-1.8-8.49-0.9-12.31c3.45-14.65,10.59-27.7,21.94-37.5
	c13.33-11.5,22.55-25.93,32.01-40.29c5.4-8.2,10.77-16.52,15.11-25.31c9.6-19.47,18.73-39.19,27.68-58.98
	c5.7-12.61,10.77-25.5,16.01-38.32c0.67-1.61,0.9-3.5,0.92-5.27c0.09-9.31-0.01-18.62,0.1-27.93c0.02-2.04,0.62-4.08,1-6.38
	c8.22,1.65,15.79,2.94,22.34,7.88c7.87,5.93,11.76,13.97,13.55,23.22c2.91,15.1,0.24,29.84-3.71,44.37
	c-5.41,19.88-11.55,39.58-16.49,59.57c-2.78,11.26-3.76,22.76-1.03,34.58c3.11,13.48,14.84,22.68,30.54,19.06
	c21.7-4.99,43.46-9.33,65.92-10.24c16.41-0.65,32.48,0.07,48.15,4.52c10.26,2.91,18.85,9.43,22.52,19.74
	c2.68,7.52,0.9,15.53-2.56,22.93c-1.43,3.07-2.8,6.26-3.53,9.54c-1.74,7.85,5.04,11.59,8.75,16.68
	C507.25,438.17,506.44,452.48,495.04,465.37z"/>
<path class="st0" d="M169.48,510.4c0,27.93,0,55.87-0.01,83.8c0,9.95-5.91,15.89-15.82,15.89c-20.62,0.02-41.24,0.01-61.86,0.01
	c-9.14-0.01-15.14-5.94-15.14-15c0-56.37,0.12-112.74-0.12-169.11c-0.04-9.72,6.29-14.01,13.89-14.26
	c21.43-0.71,42.9-0.54,64.34-0.09c7.61,0.16,14.98,4.91,14.84,15.46C169.24,454.86,169.48,482.63,169.48,510.4z"/>
</svg>
